<svg xmlns="http://www.w3.org/2000/svg" viewBox="0 0 294 184" role="img" aria-label="正常 U 形动态 Logo">
  <defs>
    <linearGradient id="logo-gradient" x1="0" y1="0" x2="294" y2="184" gradientUnits="userSpaceOnUse">
      <stop offset="0%" stop-color="#9f61dc">
        <animate attributeName="stop-color" dur="12s" repeatCount="indefinite" values="#9f61dc;#25b6cf;#f74776;#2454f4;#27bd6b;#ffb222;#9f61dc" />
      </stop>
      <stop offset="38%" stop-color="#c7a4f4">
        <animate attributeName="stop-color" dur="12s" repeatCount="indefinite" values="#c7a4f4;#36d6e8;#ff7978;#315ee8;#72d99b;#ffd069;#c7a4f4" />
      </stop>
      <stop offset="72%" stop-color="#7cb5ef">
        <animate attributeName="stop-color" dur="12s" repeatCount="indefinite" values="#7cb5ef;#35d0bc;#ffac44;#1fb2f0;#86df2d;#e4ae5e;#7cb5ef" />
      </stop>
      <stop offset="100%" stop-color="#9fc2f1">
        <animate attributeName="stop-color" dur="12s" repeatCount="indefinite" values="#9fc2f1;#82e1c2;#ff8f74;#168ff2;#49ce35;#efc37c;#9fc2f1" />
      </stop>
    </linearGradient>
    <linearGradient id="shine-gradient" x1="0" y1="0" x2="1" y2="0">
      <stop offset="0%" stop-color="#fff" stop-opacity="0" />
      <stop offset="50%" stop-color="#fff" stop-opacity="0.62" />
      <stop offset="100%" stop-color="#fff" stop-opacity="0" />
    </linearGradient>
    <mask id="logo-mask" maskUnits="userSpaceOnUse">
      <rect width="294" height="184" fill="black" />
      <g fill="white" stroke="white" stroke-linejoin="round">
        <path d="M28 28V101C28 136 47 156 79 156C108 156 120 136 120 101V82" fill="none" stroke-linecap="round" stroke-width="40" />
        <path d="M177 82V101C177 136 196 156 225 156C254 156 269 136 269 101V82" fill="none" stroke-linecap="round" stroke-width="40" />
        <path d="M100 43V31C100 17 111 6 126 6H140V20C140 33 129 43 116 43H100Z" />
        <path d="M157 6H180C190 6 197 14 197 24V43H183C168 43 157 31 157 16V6Z" />
        <path d="M249 43V31C249 17 260 6 275 6H289V20C289 33 278 43 265 43H249Z" />
      </g>
    </mask>
  </defs>
  <g mask="url(#logo-mask)">
    <rect x="-38" y="-12" width="370" height="218" fill="url(#logo-gradient)">
      <animateTransform attributeName="transform" type="translate" dur="7s" repeatCount="indefinite" values="-14 0;18 0;-14 0" />
    </rect>
    <circle cx="48" cy="58" r="58" fill="#fff" opacity="0.18" />
    <circle cx="218" cy="144" r="76" fill="#fff" opacity="0.16" />
    <path d="M-8 82C50 48 98 112 150 82C207 49 244 93 305 58" fill="none" stroke="#fff" stroke-linecap="round" stroke-width="28" opacity="0.2">
      <animateTransform attributeName="transform" type="translate" dur="6.5s" repeatCount="indefinite" values="-16 0;16 -6;-16 0" />
    </path>
    <path d="M-10 128C56 92 102 158 158 122C210 88 250 146 304 110" fill="none" stroke="#fff" stroke-linecap="round" stroke-width="22" opacity="0.22">
      <animateTransform attributeName="transform" type="translate" dur="7.4s" repeatCount="indefinite" values="18 0;-18 8;18 0" />
    </path>
    <g fill="none" stroke="#fff" stroke-width="1.15" opacity="0.34">
      <path d="M18 119L62 153L106 142L146 104L205 124L274 90" />
      <path d="M51 77L104 56L147 90L188 141L237 126L284 160" />
      <path d="M119 16L158 34L198 18L240 58L279 38" />
    </g>
    <g fill="#fff" opacity="0.62">
      <circle cx="18" cy="119" r="2.6" /><circle cx="62" cy="153" r="2.8" /><circle cx="106" cy="142" r="2.5" /><circle cx="146" cy="104" r="2.9" /><circle cx="205" cy="124" r="2.7" /><circle cx="274" cy="90" r="3" />
      <circle cx="51" cy="77" r="2.5" /><circle cx="104" cy="56" r="2.8" /><circle cx="147" cy="90" r="2.4" /><circle cx="188" cy="141" r="2.7" /><circle cx="237" cy="126" r="2.5" /><circle cx="284" cy="160" r="2.8" />
      <circle cx="119" cy="16" r="2.6" /><circle cx="158" cy="34" r="2.4" /><circle cx="198" cy="18" r="2.5" /><circle cx="240" cy="58" r="2.5" /><circle cx="279" cy="38" r="2.8" />
    </g>
    <rect x="-90" y="-8" width="58" height="206" fill="url(#shine-gradient)" opacity="0.34" transform="skewX(-18)">
      <animateTransform attributeName="transform" type="translate" additive="sum" dur="5s" repeatCount="indefinite" values="-120 0;420 0;420 0" keyTimes="0;0.55;1" />
    </rect>
  </g>
</svg>
