<svg width="256" height="256" viewBox="0 0 256 256" xmlns="http://www.w3.org/2000/svg" role="img" aria-label="XiongXiongAI bear logo">
  <defs>
    <linearGradient id="fur" x1="64" y1="42" x2="192" y2="220" gradientUnits="userSpaceOnUse">
      <stop offset="0" stop-color="#FFE3B0"/>
      <stop offset="0.55" stop-color="#D9914A"/>
      <stop offset="1" stop-color="#9B5A2C"/>
    </linearGradient>
    <linearGradient id="muzzle" x1="92" y1="130" x2="164" y2="196" gradientUnits="userSpaceOnUse">
      <stop offset="0" stop-color="#FFF6DC"/>
      <stop offset="1" stop-color="#F2C884"/>
    </linearGradient>
    <filter id="softShadow" x="-20%" y="-20%" width="140%" height="150%">
      <feDropShadow dx="0" dy="10" stdDeviation="10" flood-color="#7A431F" flood-opacity="0.24"/>
    </filter>
  </defs>
  <rect width="256" height="256" rx="56" fill="#FFF7E8"/>
  <g filter="url(#softShadow)">
    <circle cx="74" cy="82" r="38" fill="#B86E35"/>
    <circle cx="182" cy="82" r="38" fill="#B86E35"/>
    <circle cx="74" cy="82" r="22" fill="#FFD89E"/>
    <circle cx="182" cy="82" r="22" fill="#FFD89E"/>
    <circle cx="128" cy="132" r="82" fill="url(#fur)"/>
    <ellipse cx="128" cy="166" rx="48" ry="38" fill="url(#muzzle)"/>
    <circle cx="97" cy="126" r="11" fill="#352016"/>
    <circle cx="159" cy="126" r="11" fill="#352016"/>
    <circle cx="101" cy="122" r="4" fill="#FFFFFF" opacity="0.9"/>
    <circle cx="163" cy="122" r="4" fill="#FFFFFF" opacity="0.9"/>
    <path d="M128 142c10 0 18 5 18 12 0 8-8 13-18 13s-18-5-18-13c0-7 8-12 18-12Z" fill="#5A3324"/>
    <path d="M112 174c8 11 24 12 32 0" fill="none" stroke="#5A3324" stroke-width="7" stroke-linecap="round"/>
    <path d="M74 151c-13 4-24-1-28-11" fill="none" stroke="#A45D2C" stroke-width="8" stroke-linecap="round" opacity="0.55"/>
    <path d="M182 151c13 4 24-1 28-11" fill="none" stroke="#A45D2C" stroke-width="8" stroke-linecap="round" opacity="0.55"/>
  </g>
  <path d="M54 48c14-18 35-24 57-19" fill="none" stroke="#FFFFFF" stroke-width="10" stroke-linecap="round" opacity="0.65"/>
  <text x="128" y="228" text-anchor="middle" font-family="Arial, sans-serif" font-size="24" font-weight="700" fill="#7A431F">熊熊AI</text>
</svg>
